<?xml version="1.0" encoding="utf-8"?>
<!-- Generator: Adobe Illustrator 27.3.1, SVG Export Plug-In . SVG Version: 6.00 Build 0)  -->
<svg version="1.1" id="Layer_1" xmlns="http://www.w3.org/2000/svg" xmlns:xlink="http://www.w3.org/1999/xlink" x="0px" y="0px"
	 viewBox="0 0 512 512" style="enable-background:new 0 0 512 512;" xml:space="preserve">
<style type="text/css">
	.st0{fill:#333333;}
	.st1{fill:#BCBEC0;}
	.st2{fill:#FFFFFF;}
</style>
<path class="st0" d="M440.4,512.2H71.7C32,512.2-0.2,480-0.2,440.3V72C-0.2,32.3,32,0.1,71.7,0.1h368.7c39.7,0,71.9,32.2,71.9,71.9
	v368.3C512.4,480,480.2,512.2,440.4,512.2z"/>
<g>
	<path class="st1" d="M158.8,345.5c35.1,0,59.8-22.5,59.8-64.8c0-74.7-78.3-109.8-122.8-118.3c-8.1-1.8-18.4-53.1-18.4-56.7
		C76,76.4,247.4,42.2,314.9,46.3c12.1,0.9,27.4,38.7,27.4,44.1c0,21.6-44.5,54.4-61.6,54.4c-4.5,0-13-4.5-13-7.6
		c0-4,4.9-14.8,4.9-19.8c0-7.2-68.8,6.8-100.8,23.4c28.4,10.4,143.5,58,143.5,157.9c0,62.1-59.8,91.3-128.2,91.3
		c-89.5,0-141.3-52.2-141.3-96.8c0-29.7,17.1-58,43.6-58c28.3,0,54,17.5,56.7,27.4c-8.5,9.5-18.9,32-18.9,51.3
		C127.3,330.7,138.5,345.5,158.8,345.5z"/>
</g>
<g>
	<path class="st2" d="M361.2,133.7c41,0,92.7,29.7,92.7,74.7c0,46.8-32.4,75.6-58.5,75.6c-26.5,0-36-17.1-40-26.1
		c0,0,30.1-34.7,30.6-66.6c0-9.4-5.8-14.8-14-14.8c-34.2,0-94.9,97.2-94.9,188.1c0,45.9,15.8,63.9,41.4,63.9
		c45.5,0,63.5-61.7,68.9-100.8c0,0,14.4-6.3,35.5-6.3c19.8,0,36,13,36,41.4c0,42.8-38.7,117.4-125.5,117.4
		c-85,0-137.2-51.3-137.2-132.7C196.1,255.2,258.2,133.7,361.2,133.7z"/>
</g>
<g>
</g>
<g>
</g>
<g>
</g>
<g>
</g>
<g>
</g>
<g>
</g>
</svg>
